# xmcd CD database file
#
# Track frame offsets:
#	150
#	18922
#	33900
#	49297
#	66162
#	84137
#	100425
#	116705
#	134462
#	153472
#	166375
#	182687
#	198062
#	215987
#	232807
#	252075
#	267712
#	281437
#	297627
#	313937
#
# Disc length: 4397 seconds
#
# Revision: 0
# Processed by: cddbd v1.5.1PL0 Copyright (c) Steve Scherf et al.
# Submitted via: CDex 1.40Beta6
#
DISCID=2a112b14
DTITLE=Alabama - Their Greatest and Finest Performances Disc 1
DYEAR=2001
DGENRE=Country
TTITLE0=Roll On(Eighteen Wheeler)
TTITLE1=Love In The First Degree
TTITLE2=Feels So Right
TTITLE3=Take Me Down
TTITLE4=Lady Down On Love
TTITLE5=The Closer You Get
TTITLE6=When We Make Love
TTITLE7=(There's A) Fire In The Night
TTITLE8=There's No Way
TTITLE9=I'm In A Hurry (And Don't Know Why)
TTITLE10=She And I
TTITLE11=Can't Keep A Good Man Down
TTITLE12=Dixieland Delight
TTITLE13=Touch Me When We're Dancing
TTITLE14="You've"  Got The Touch
TTITLE15=Fallin' Again
TTITLE16=Face To Face
TTITLE17=Close Enough To Perfect
TTITLE18=Jukebox In My Mind
TTITLE19=If I Had You
EXTD=
EXTT0=
EXTT1=
EXTT2=
EXTT3=
EXTT4=
EXTT5=
EXTT6=
EXTT7=
EXTT8=
EXTT9=
EXTT10=
EXTT11=
EXTT12=
EXTT13=
EXTT14=
EXTT15=
EXTT16=
EXTT17=
EXTT18=
EXTT19=
PLAYORDER=
